<svg width="48" height="37" viewBox="0 0 48 37" fill="none" xmlns="http://www.w3.org/2000/svg">
<path d="M47.4889 5.93999C47.3439 5.75174 47.1578 5.59919 46.9448 5.49403C46.7318 5.38887 46.4975 5.33389 46.26 5.33332H10.3266L9.62664 3.10888C9.54974 2.87003 9.41621 2.65334 9.23744 2.47727C9.05867 2.30121 8.83996 2.171 8.59997 2.09776L2.22219 0.137764C2.02608 0.077502 1.82003 0.0564559 1.61579 0.0758279C1.41155 0.0952 1.21312 0.154611 1.03184 0.250668C0.665726 0.444664 0.391673 0.776152 0.269968 1.17221C0.148263 1.56827 0.188876 1.99645 0.382872 2.36256C0.576868 2.72867 0.908356 3.00273 1.30441 3.12443L6.88886 4.83554L14.0133 27.3444L11.4777 29.4289L11.2755 29.6311C10.6485 30.3572 10.2932 31.2786 10.2705 32.2377C10.2478 33.1968 10.5591 34.1339 11.1511 34.8889C11.5751 35.4045 12.1138 35.8137 12.7243 36.0838C13.3347 36.3539 13.9999 36.4774 14.6666 36.4444H40.6289C41.0414 36.4444 41.4371 36.2805 41.7288 35.9888C42.0205 35.6971 42.1844 35.3014 42.1844 34.8889C42.1844 34.4763 42.0205 34.0807 41.7288 33.7889C41.4371 33.4972 41.0414 33.3333 40.6289 33.3333H14.4177C14.2386 33.3272 14.0641 33.275 13.911 33.1817C13.758 33.0885 13.6316 32.9573 13.544 32.8009C13.4564 32.6446 13.4106 32.4682 13.4111 32.289C13.4116 32.1098 13.4583 31.9337 13.5466 31.7778L17.2955 28.6667H41.2977C41.6531 28.677 42.0013 28.5653 42.2843 28.3502C42.5673 28.1351 42.7681 27.8296 42.8533 27.4844L47.8311 7.26221C47.8784 7.0303 47.8721 6.79066 47.8128 6.56153C47.7535 6.3324 47.6427 6.11982 47.4889 5.93999Z" fill="#3E4095"/>
</svg>
